<?xml version="1.0" standalone="no"?>
<!DOCTYPE svg PUBLIC "-//W3C//DTD SVG 20010904//EN"
 "http://www.w3.org/TR/2001/REC-SVG-20010904/DTD/svg10.dtd">
<svg version="1.0" xmlns="http://www.w3.org/2000/svg"
 width="427.000000pt" height="427.000000pt" viewBox="0 0 427.000000 427.000000"
 preserveAspectRatio="xMidYMid meet">
<metadata>
Created by potrace 1.14, written by Peter Selinger 2001-2017
</metadata>
<g transform="translate(0.000000,427.000000) scale(0.100000,-0.100000)"
fill="#000000" stroke="none">
<path d="M1958 4175 c-2 -2 -32 -6 -68 -10 -473 -48 -936 -264 -1274 -593
-294 -286 -503 -664 -577 -1043 -29 -154 -37 -250 -34 -424 4 -227 27 -373 92
-570 120 -370 357 -712 658 -950 28 -22 52 -42 55 -45 6 -6 55 -41 113 -80
145 -98 362 -200 549 -259 107 -34 303 -75 413 -88 91 -10 412 -10 495 0 194
24 423 78 535 127 11 5 59 25 107 45 211 89 442 241 608 400 133 127 209 217
304 360 132 197 228 413 281 635 16 67 17 72 30 155 4 28 10 59 12 70 12 48
10 386 -2 475 -45 322 -142 587 -311 843 -396 598 -1065 952 -1806 955 -97 0
-178 -1 -180 -3z"/>
</g>
</svg>
